<?xml version="1.0" encoding="UTF-8"?>
<svg width="360" height="96" viewBox="0 0 360 96" xmlns="http://www.w3.org/2000/svg">
  <defs>
    <linearGradient id="ces3-logotype-gradient" x1="12%" y1="8%" x2="92%" y2="92%">
      <stop offset="0%" stop-color="#38F8FF" />
      <stop offset="60%" stop-color="#2E7BFF" />
      <stop offset="100%" stop-color="#7D3BFF" />
    </linearGradient>
    <linearGradient id="ces3-logotype-accent" x1="0%" y1="0%" x2="100%" y2="100%">
      <stop offset="0%" stop-color="#FFFFFF" stop-opacity="0.85" />
      <stop offset="100%" stop-color="#FFFFFF" stop-opacity="0.1" />
    </linearGradient>
  </defs>
  <g fill="none" fill-rule="evenodd">
    <rect x="0" y="8" width="112" height="80" rx="26" fill="url(#ces3-logotype-gradient)" />
    <circle cx="56" cy="44" r="32" fill="url(#ces3-logotype-accent)" opacity=".6" />
    <g transform="translate(20 20)">
      <path d="M23 39c-8.84 0-16-7.16-16-16s7.16-16 16-16c4.39 0 8.25 1.74 10.96 4.63" stroke="#D6F6FF" stroke-width="3.4" stroke-linecap="round" stroke-linejoin="round" opacity=".65" />
      <path d="M37.62 14.5c1.95-1.07 4.22-1.72 6.62-1.72 7.63 0 13.82 6.18 13.82 13.82 0 7.63-6.19 13.82-13.82 13.82-3.62 0-6.85-1.33-9.33-3.53" stroke="#071A39" stroke-width="3.8" stroke-linecap="round" stroke-linejoin="round" opacity=".25" />
      <path d="M35.65 17.54c1.44-.96 3.32-1.54 5.3-1.54 5.42 0 9.82 4.4 9.82 9.82s-4.4 9.82-9.82 9.82c-2.64 0-5.01-1.04-6.74-2.71" stroke="#FDFEFF" stroke-width="3.2" stroke-linecap="round" stroke-linejoin="round" />
      <g font-family="'DM Sans', 'Segoe UI', sans-serif" font-weight="600" letter-spacing="4" fill="#FFFFFF">
        <text font-size="22" x="4" y="54">CES</text>
        <text font-size="20" x="68" y="54" letter-spacing="0">³</text>
      </g>
    </g>
    <g font-family="'DM Sans', 'Segoe UI', sans-serif" font-weight="600" fill="#E9F6FF" letter-spacing="9">
      <text x="136" y="48" font-size="26">CES3</text>
      <text x="136" y="76" font-size="16" letter-spacing="8" opacity=".75">LOGO STUDIO</text>
    </g>
  </g>
</svg>
